<svg xmlns="http://www.w3.org/2000/svg" width="908" height="908" viewBox="0 0 908 908">
  <path id="DMRC-logo-black" d="M407.58,905.656a455.165,455.165,0,0,1-45.077-6.88c-14.627-2.993-29.265-6.757-43.509-11.188-14.085-4.38-28.119-9.517-41.712-15.267-13.468-5.7-26.82-12.128-39.686-19.118-12.775-6.939-25.368-14.591-37.432-22.74A456.519,456.519,0,0,1,77.536,707.836c-8.15-12.064-15.8-24.658-22.74-37.433-6.989-12.866-13.422-26.218-19.118-39.686-5.75-13.594-10.886-27.627-15.267-41.712C15.98,574.761,12.217,560.122,9.224,545.5a455.144,455.144,0,0,1-6.881-45.077,460.881,460.881,0,0,1,0-92.839A455.141,455.141,0,0,1,9.224,362.5c2.993-14.626,6.756-29.264,11.187-43.509,4.38-14.085,9.517-28.119,15.267-41.712,5.7-13.468,12.128-26.82,19.118-39.686,6.939-12.775,14.59-25.368,22.74-37.432A456.483,456.483,0,0,1,200.165,77.536c12.064-8.15,24.657-15.8,37.432-22.74,12.865-6.989,26.218-13.422,39.686-19.118,13.594-5.75,27.627-10.886,41.712-15.267,14.244-4.431,28.883-8.194,43.509-11.187A455.141,455.141,0,0,1,407.58,2.344a460.881,460.881,0,0,1,92.839,0A455.144,455.144,0,0,1,545.5,9.224c14.626,2.993,29.264,6.756,43.509,11.187,14.085,4.38,28.119,9.517,41.712,15.267,13.468,5.7,26.82,12.128,39.686,19.118,12.775,6.939,25.369,14.591,37.433,22.74A456.519,456.519,0,0,1,830.464,200.165c8.149,12.064,15.8,24.657,22.74,37.432,6.989,12.865,13.422,26.218,19.118,39.686,5.75,13.594,10.886,27.627,15.267,41.712,4.431,14.243,8.194,28.882,11.188,43.509a455.165,455.165,0,0,1,6.88,45.077,460.876,460.876,0,0,1,0,92.839,455.168,455.168,0,0,1-6.88,45.077c-2.993,14.627-6.757,29.265-11.188,43.509-4.38,14.085-9.518,28.119-15.267,41.712-5.7,13.468-12.128,26.82-19.118,39.686-6.94,12.776-14.591,25.369-22.74,37.433A456.554,456.554,0,0,1,707.836,830.464c-12.064,8.149-24.657,15.8-37.433,22.74-12.866,6.989-26.218,13.422-39.686,19.118-13.594,5.749-27.627,10.886-41.712,15.267-14.243,4.431-28.882,8.194-43.509,11.188a455.168,455.168,0,0,1-45.077,6.88,460.876,460.876,0,0,1-92.839,0ZM454,831c161.085,0,298.9-101.554,352.78-244H101.221C155.1,729.446,292.914,831,454,831ZM826.389,513a379.919,379.919,0,0,0,.755-113H605.2L443.815,513ZM314.8,513,476.182,400H80.856a379.922,379.922,0,0,0,.755,113ZM808.63,326C756.109,180.937,616.963,77,454,77S151.891,180.937,99.37,326Z"/>
</svg>
